<mxfile host="app.diagrams.net" modified="2023-05-11T12:14:03.533Z" agent="Mozilla/5.0 (Windows NT 10.0; Win64; x64; rv:109.0) Gecko/20100101 Firefox/110.0" version="21.1.7" etag="gth9Oh62BlXiXJ9iUJmn" type="github">
  <diagram name="第 1 页" id="4P_1muIs1H5YXV-WPPDs">
    <mxGraphModel>
      <root>
        <mxCell id="0" />
        <mxCell id="1" parent="0" />
      </root>
    </mxGraphModel>
  </diagram>
</mxfile>
